<svg width="24" height="24" viewBox="0 0 30 30" fill="none"><path fill-rule="evenodd" clip-rule="evenodd" d="M27 15a12 12 0 1 1-24 0 12 12 0 0 1 24 0zm-14.61 5v-7.42h-2.26V20h2.26zm-1.13-8.44c.79 0 1.28-.57 1.28-1.28-.02-.73-.5-1.28-1.26-1.28-.78 0-1.28.55-1.28 1.28 0 .71.49 1.28 1.25 1.28h.01zM15.88 20h-2.5s.04-6.5 0-7.17h2.5v1.02l-.02.02h.02v-.02a2.5 2.5 0 0 1 2.25-1.18c1.64 0 2.87 1.02 2.87 3.22V20h-2.5v-3.83c0-.97-.36-1.62-1.26-1.62-.69 0-1.1.44-1.28.87-.06.15-.08.36-.08.58v4z" fill="currentColor"></path></svg>