<svg width="24" height="24" viewBox="0 0 30 30" fill="none"><path fill-rule="evenodd" clip-rule="evenodd" d="M15 27a12 12 0 1 0 0-24 12 12 0 0 0 0 24zm4.95-16.17a2.67 2.67 0 0 0-4.6 1.84c0 .2.03.41.05.62a7.6 7.6 0 0 1-5.49-2.82 3 3 0 0 0-.38 1.34c.02.94.49 1.76 1.2 2.23a2.53 2.53 0 0 1-1.2-.33v.04c0 1.28.92 2.36 2.14 2.62-.23.05-.46.08-.71.1l-.21-.02-.27-.03a2.68 2.68 0 0 0 2.48 1.86A5.64 5.64 0 0 1 9 19.38a7.62 7.62 0 0 0 4.1 1.19c4.9 0 7.58-4.07 7.57-7.58v-.39c.52-.36.97-.83 1.33-1.38-.48.23-1 .37-1.53.43.56-.33.96-.86 1.15-1.48-.5.31-1.07.53-1.67.66z" fill="currentColor"></path></svg>